HIERARCHY
ROOT Joint1
{
	OFFSET 0.000000 0.000000 0.000000
	CHANNELS 6 Xposition Yposition Zposition Xrotation Yrotation Zrotation
	JOINT Joint2
	{
		OFFSET -0.000000 0.000000 1.456275
		CHANNELS 6 Xposition Yposition Zposition Xrotation Yrotation Zrotation
		JOINT Joint3
		{
			OFFSET -0.000000 0.000002 1.471446
			CHANNELS 6 Xposition Yposition Zposition Xrotation Yrotation Zrotation
			JOINT Joint4
			{
				OFFSET 0.625745 0.000000 0.917755
				CHANNELS 6 Xposition Yposition Zposition Xrotation Yrotation Zrotation
				JOINT Joint5
				{
					OFFSET -0.629534 0.000001 0.940221
					CHANNELS 6 Xposition Yposition Zposition Xrotation Yrotation Zrotation
					JOINT Joint6
					{
						OFFSET -0.000001 0.113772 1.960660
						CHANNELS 6 Xposition Yposition Zposition Xrotation Yrotation Zrotation
						JOINT Joint7
						{
							OFFSET -0.669733 -0.113771 0.388340
							CHANNELS 6 Xposition Yposition Zposition Xrotation Yrotation Zrotation
							End Site
							{
								OFFSET 0.005509 0.005509 0.438980
							}
						}
					}
				}
			}
		}
	}
}
MOTION
Frames: 14
Frame Time: 0.041667
0.000000 0.000000 0.000000 -0.000000 1.019410 0.061376 -0.000000 0.000000 1.456275 -0.000000 -44.957398 -0.000000 -0.000000 0.000002 1.471446 0.000000 -1.133460 -0.033241 0.625744 0.000000 0.917755 0.000004 135.006940 -0.000001 -0.629533 0.000001 0.940221 -0.000000 1.709737 -0.053689 -0.000001 0.113772 1.960660 -88.295775 90.021791 0.006175 -0.669733 -0.113771 0.388340 -0.703830 3.566196 134.888600 
0.000000 0.000000 0.000000 -0.000000 1.019410 0.249482 -0.000000 0.000000 1.456275 -0.000000 -44.894878 0.000000 -0.000000 0.000002 1.471446 -0.000000 -1.133462 -0.029168 0.625745 0.000000 0.917755 0.000004 134.972611 -0.000001 -0.629534 0.000001 0.940221 0.000000 1.709737 -0.169638 -0.000000 0.113772 1.960661 -88.302741 90.164084 0.000816 -0.669733 -0.113771 0.388341 -0.700044 3.566182 134.675443 
0.000000 0.000000 0.000000 -0.000000 1.019410 0.547589 -0.000000 -0.000000 1.456275 0.000000 -44.795789 0.000000 -0.000000 0.000002 1.471446 -0.000000 -1.133456 -0.022712 0.625744 0.000000 0.917755 0.000003 134.918202 -0.000001 -0.629534 0.000001 0.940221 0.000000 1.709736 -0.353391 -0.000001 0.113772 1.960660 -88.303411 90.389576 0.000317 -0.669733 -0.113771 0.388339 -0.694044 3.566130 134.337663 
0.000000 0.000000 0.000000 -0.000000 1.019410 0.943090 -0.000000 0.000000 1.456275 -0.000000 -44.664325 -0.000000 -0.000000 0.000002 1.471446 0.000000 -1.133460 -0.014146 0.625745 0.000000 0.917755 0.000004 134.846021 -0.000001 -0.629533 0.000001 0.940220 0.000000 1.709737 -0.597179 -0.000001 0.113772 1.960660 -88.303609 90.688738 0.000185 -0.669733 -0.113771 0.388340 -0.686084 3.566007 133.889507 
0.000000 0.000000 0.000000 -0.000000 1.019410 1.423383 -0.000000 -0.000000 1.456275 0.000000 -44.504693 0.000000 -0.000000 0.000002 1.471446 -0.000000 -1.133463 -0.003744 0.625744 0.000000 0.917755 0.000003 134.758376 -0.000001 -0.629534 0.000001 0.940221 -0.000000 1.709737 -0.893232 -0.000001 0.113772 1.960660 -88.303725 91.052043 0.000119 -0.669733 -0.113771 0.388340 -0.676421 3.565774 133.345278 
0.000000 0.000000 0.000000 -0.000000 1.019410 1.975864 -0.000000 0.000000 1.456275 -0.000000 -44.321046 -0.000000 -0.000000 0.000002 1.471446 -0.000000 -1.133461 0.008221 0.625745 0.000000 0.917755 0.000004 134.657548 -0.000001 -0.629534 0.000001 0.940221 -0.000000 1.709737 -1.233783 -0.000001 0.113772 1.960660 -88.303759 91.469955 0.000073 -0.669733 -0.113771 0.388340 -0.665308 3.565394 132.719250 
0.000000 0.000000 0.000000 -0.000000 1.019410 2.587928 -0.000000 0.000000 1.456275 -0.000000 -44.117602 0.000000 -0.000000 0.000002 1.471446 -0.000000 -1.133460 0.021476 0.625744 0.000000 0.917755 0.000004 134.545847 -0.000001 -0.629534 0.000001 0.940221 0.000000 1.709736 -1.611060 -0.000000 0.113772 1.960661 -88.303780 91.932932 0.000070 -0.669733 -0.113771 0.388340 -0.653002 3.564831 132.025713 
0.000000 0.000000 0.000000 -0.000000 1.019410 3.246972 -0.000000 0.000000 1.456275 0.000000 -43.898544 0.000000 -0.000000 0.000002 1.471446 -0.000000 -1.133462 0.035749 0.625745 0.000000 0.917755 0.000004 134.425568 -0.000001 -0.629534 0.000001 0.940221 0.000000 1.709736 -2.017295 -0.000000 0.113772 1.960661 -88.303800 92.431447 0.000051 -0.669733 -0.113771 0.388341 -0.639761 3.564057 131.278941 
0.000000 0.000000 0.000000 -0.000000 1.019410 3.940392 -0.000000 0.000000 1.456275 0.000000 -43.668063 -0.000000 -0.000000 0.000002 1.471446 -0.000000 -1.133458 0.050766 0.625745 0.000000 0.917755 0.000003 134.299018 -0.000001 -0.629533 0.000001 0.940220 0.000000 1.709736 -2.444720 -0.000001 0.113772 1.960661 -88.303821 92.955965 0.000051 -0.669733 -0.113771 0.388340 -0.625840 3.563057 130.493196 
0.000000 0.000000 0.000000 -0.000000 1.019410 4.655583 -0.000000 0.000000 1.456275 -0.000000 -43.430345 -0.000000 -0.000000 0.000002 1.471446 0.000000 -1.133459 0.066256 0.625745 0.000000 0.917755 0.000003 134.168507 -0.000001 -0.629534 0.000001 0.940221 -0.000000 1.709737 -2.885565 -0.000000 0.113772 1.960661 -88.303827 93.496950 0.000042 -0.669733 -0.113771 0.388339 -0.611499 3.561827 129.682821 
0.000000 0.000000 0.000000 -0.000000 1.019410 5.389529 -0.000000 0.000000 1.456275 -0.000000 -43.186388 0.000000 -0.000000 0.000002 1.471446 0.000000 -1.133460 0.082151 0.625745 0.000000 0.917755 0.000003 134.034567 -0.000001 -0.629534 0.000001 0.940221 0.000000 1.709737 -3.337970 -0.000002 0.113772 1.960661 -88.303834 94.052122 0.000027 -0.669733 -0.113771 0.388340 -0.596801 3.560355 128.851191 
0.000000 0.000000 0.000000 -0.000000 1.019410 6.177557 -0.000000 0.000000 1.456275 0.000000 -42.924450 -0.000001 -0.000001 0.000002 1.471446 -0.000000 -1.133458 0.099217 0.625745 0.000000 0.917755 0.000003 133.890750 -0.000001 -0.629534 0.000001 0.940221 -0.000001 1.709736 -3.823713 -0.000001 0.113772 1.960660 -88.303841 94.648199 0.000027 -0.669733 -0.113771 0.388340 -0.581046 3.558538 127.958239 
0.000000 0.000000 0.000000 -0.000000 1.019410 7.064584 -0.000000 0.000000 1.456275 0.000000 -42.629622 0.000000 -0.000000 0.000002 1.471446 -0.000000 -1.133459 0.118428 0.625744 0.000000 0.917755 0.000003 133.728875 -0.000001 -0.629534 0.000001 0.940221 -0.000001 1.709737 -4.370477 -0.000001 0.113772 1.960661 -88.303848 95.319169 0.000027 -0.669733 -0.113771 0.388340 -0.563347 3.556197 126.953163 
0.000000 0.000000 0.000000 -0.000000 1.019410 8.095526 -0.000000 0.000000 1.456275 -0.000000 -42.286944 -0.000001 -0.000000 0.000002 1.471446 -0.000001 -1.133462 0.140755 0.625744 0.000000 0.917755 0.000005 133.540744 -0.000001 -0.629534 0.000001 0.940221 -0.000001 1.709736 -5.005949 -0.000001 0.113772 1.960660 -88.303855 96.098999 0.000022 -0.669733 -0.113771 0.388340 -0.542833 3.553087 125.784982 
